 <svg version="1.0" xmlns="http://www.w3.org/2000/svg"
 width="1280.000000pt" height="957.000000pt" viewBox="0 0 1280.000000 957.000000"
 preserveAspectRatio="xMidYMid meet"><g transform="translate(0.000000,957.000000) scale(0.100000,-0.100000)"
fill="#000000" stroke="none">
<path d="M4185 9078 c-31 -18 -44 -40 -45 -75 0 -45 8 -60 44 -82 30 -19 33
-25 43 -103 6 -46 8 -100 6 -122 -4 -29 12 -321 21 -370 0 -5 -29 -21 -66 -36
-92 -39 -149 -80 -244 -175 -91 -91 -142 -175 -187 -304 -27 -79 -30 -97 -30
-221 0 -119 3 -146 27 -225 30 -99 51 -140 121 -233 l47 -63 -11 -132 c-7 -73
-15 -135 -19 -139 -4 -4 -31 -1 -59 6 -62 16 -127 62 -118 84 10 27 -15 82
-45 97 -41 21 -64 19 -99 -11 -42 -35 -43 -89 -4 -129 25 -24 33 -27 75 -22
47 6 71 -5 45 -20 -39 -23 -41 -74 -5 -125 23 -33 23 -32 -7 -62 -31 -32 -34
-90 -5 -121 22 -23 44 10 -191 -286 -59 -74 -139 -181 -178 -238 -114 -164
-213 -282 -307 -362 -196 -168 -294 -367 -344 -699 -53 -356 -68 -406 -250
-835 -132 -311 -206 -504 -265 -690 -26 -82 -58 -171 -71 -197 -13 -26 -33
-82 -45 -125 -11 -43 -47 -159 -79 -258 -81 -251 -196 -653 -216 -757 l-17
-86 -51 -4 c-58 -5 -106 8 -106 27 0 20 -40 45 -70 45 -34 0 -70 -38 -70 -73
0 -58 73 -87 121 -48 21 17 28 17 64 6 67 -21 95 -37 95 -56 0 -37 -70 -586
-84 -659 -8 -41 -18 -111 -21 -155 -10 -119 -21 -154 -53 -166 -31 -12 -185
-34 -336 -49 -87 -8 -117 -15 -145 -33 -47 -31 -83 -42 -220 -66 -62 -12 -138
-32 -168 -46 -31 -14 -60 -25 -67 -25 -6 0 -71 -30 -144 -67 -95 -48 -131 -71
-127 -81 3 -8 1 -20 -4 -26 -12 -15 8 -43 40 -54 16 -6 40 -5 69 3 25 7 63 16
85 20 21 4 57 16 80 27 22 12 72 27 110 35 98 20 294 31 328 20 16 -5 63 -6
105 -3 147 13 152 11 94 -42 -45 -42 -50 -63 -28 -117 29 -69 86 -70 161 -1
l47 43 101 7 c122 9 171 28 218 86 19 23 62 75 96 116 69 83 95 143 112 254
45 292 97 528 163 729 l40 123 41 -8 c23 -5 67 -9 97 -10 80 -2 80 -2 80 -22
0 -51 88 -74 122 -33 50 63 -13 141 -86 106 -36 -17 -63 -11 -172 35 l-44 19
14 33 c105 243 187 478 311 893 43 143 79 238 147 385 50 107 149 339 220 515
114 282 331 755 347 755 3 0 26 -53 49 -117 24 -65 64 -165 89 -223 64 -147
262 -543 339 -676 98 -169 126 -266 143 -487 13 -174 33 -249 118 -445 70
-163 116 -249 225 -417 25 -38 70 -120 100 -181 70 -142 103 -190 197 -289 42
-44 107 -116 145 -159 119 -134 315 -285 474 -365 99 -50 256 -98 382 -118
177 -27 532 -24 705 6 138 24 467 104 703 171 126 35 240 60 457 100 33 6 197
31 365 55 168 24 397 58 510 74 113 17 276 35 362 40 143 10 163 9 234 -9 142
-37 350 -63 494 -62 146 0 263 15 648 83 l233 41 45 -47 c54 -56 96 -75 166
-75 95 0 182 68 241 188 23 47 47 58 147 68 41 4 70 0 114 -15 74 -26 107 -26
203 0 89 25 155 22 313 -11 52 -11 132 -20 176 -20 45 0 103 -4 130 -9 54 -10
118 -17 266 -27 118 -8 191 7 215 42 9 14 25 24 38 24 30 0 55 25 55 56 0 13
6 24 13 24 22 0 47 34 47 63 0 17 7 28 21 32 23 8 41 47 33 70 -7 16 -52 31
-131 41 -36 4 -53 11 -53 21 0 9 7 12 18 9 105 -31 144 -36 169 -24 30 15 48
57 39 93 -7 28 -74 83 -124 101 -20 7 -62 13 -93 14 -31 0 -94 7 -140 16 -46
9 -97 13 -114 10 -16 -3 -84 -17 -150 -30 -107 -23 -143 -26 -335 -25 -194 0
-270 4 -479 25 -79 8 -155 -8 -213 -45 -35 -23 -51 -27 -88 -24 -43 4 -46 7
-65 51 -10 26 -42 70 -69 98 -59 58 -119 80 -186 69 -30 -5 -46 -3 -58 8 -9 8
-30 17 -45 21 -23 6 -27 10 -17 21 17 20 8 68 -15 80 -15 8 -19 18 -17 45 4
37 -18 63 -45 53 -12 -5 -14 0 -9 23 7 32 -21 74 -49 74 -8 0 -15 9 -15 20 0
12 -11 32 -25 46 -21 21 -32 25 -63 20 -20 -3 -62 -8 -93 -11 -55 -6 -56 -6
-69 24 -17 43 -93 110 -174 155 -38 22 -97 61 -130 87 -33 27 -76 54 -95 60
-20 6 -58 22 -85 36 -65 34 -154 41 -246 19 -58 -14 -82 -15 -146 -7 -167 24
-917 183 -1294 276 -267 65 -469 85 -890 85 -237 0 -341 10 -391 36 -17 8 -62
44 -101 80 -83 76 -125 106 -233 164 -44 24 -141 82 -215 128 -165 104 -194
117 -295 132 -44 7 -101 18 -126 26 -45 14 -47 16 -53 61 -3 25 -6 102 -6 170
0 116 1 124 18 117 23 -12 134 -8 194 7 66 15 159 79 212 144 41 50 45 53 64
39 44 -30 220 -127 283 -154 80 -35 129 -47 240 -56 206 -16 273 50 335 331
33 150 80 331 115 446 27 87 32 97 57 102 45 9 95 50 111 90 18 49 3 104 -45
156 -38 43 -41 64 -19 118 9 20 13 44 10 54 -6 19 81 473 96 501 5 9 25 25 45
34 19 9 86 67 148 128 l112 111 28 -29 c22 -23 32 -27 59 -22 63 12 89 86 46
132 l-22 23 41 63 c41 65 79 175 69 203 -4 8 -15 15 -26 15 -18 0 -19 3 -9 31
10 30 6 142 -8 187 -5 19 -3 22 19 22 15 0 37 -11 51 -25 27 -27 52 -31 89
-14 24 11 47 47 47 74 0 22 -43 64 -73 71 -23 5 -33 0 -60 -28 -18 -19 -44
-37 -59 -40 -25 -5 -27 -2 -42 61 -9 36 -30 94 -46 128 -30 60 -111 154 -158
184 l-23 14 20 48 c16 38 25 47 45 47 15 0 33 11 46 27 41 52 3 123 -65 123
-60 0 -98 -78 -59 -121 15 -16 15 -21 -1 -62 l-17 -44 -61 19 c-89 28 -190 21
-281 -21 -38 -17 -72 -31 -75 -31 -3 0 -19 21 -35 46 -21 34 -26 48 -17 57 19
19 13 72 -12 95 -40 37 -98 28 -123 -19 -27 -53 4 -107 64 -112 25 -2 37 -10
56 -41 l23 -39 -22 -38 c-12 -21 -40 -52 -63 -69 -89 -64 -128 -174 -100 -282
l15 -58 -30 0 c-16 0 -42 11 -59 25 -37 31 -69 32 -104 2 -37 -33 -37 -81 0
-114 33 -28 66 -29 97 -4 21 17 25 17 46 4 28 -19 29 -36 1 -142 -21 -83 -21
-85 -3 -155 10 -39 36 -120 58 -181 36 -103 39 -115 33 -190 -7 -111 -48 -306
-97 -461 l-41 -130 -43 -12 c-57 -15 -105 -69 -105 -119 0 -20 9 -56 21 -80
l21 -43 -45 -113 c-25 -61 -55 -143 -67 -182 -12 -38 -26 -74 -30 -78 -10 -11
-125 67 -235 157 -168 139 -485 385 -600 466 -90 64 -164 130 -300 266 -176
178 -337 324 -357 324 -5 0 -29 14 -54 31 -36 27 -43 37 -42 63 1 28 -14 66
-43 107 -9 12 -6 21 15 42 32 32 35 83 7 119 -20 24 -19 25 4 54 22 28 26 29
107 29 45 0 129 -4 185 -9 126 -11 153 -2 183 58 11 23 20 62 20 87 1 47 12
69 48 88 16 8 22 21 22 43 0 17 8 40 18 51 12 13 17 36 17 76 l0 56 58 28 c90
43 92 55 23 190 -69 135 -75 169 -46 262 17 55 22 94 21 185 0 351 -174 557
-546 649 -98 25 -288 45 -355 39 -28 -3 -50 -3 -50 -1 0 34 -68 332 -85 373
-13 30 -26 86 -30 123 -7 61 -5 71 13 90 30 32 36 70 18 106 -26 49 -76 65
-121 39z m2982 -1748 c63 -14 77 -23 69 -48 -6 -19 -9 -19 -54 -5 -31 10 -69
13 -112 9 -45 -3 -73 -1 -90 9 -23 12 -23 14 -6 21 62 24 124 28 193 14z m176
-99 c29 -27 61 -64 71 -83 18 -31 16 -30 -28 13 -26 26 -63 55 -82 65 -19 10
-34 26 -34 36 0 29 18 21 73 -31z m-503 -35 c0 -3 -4 -8 -10 -11 -5 -3 -10 -1
-10 4 0 6 5 11 10 11 6 0 10 -2 10 -4z m-3021 -472 c36 -30 36 -31 11 -64
l-19 -25 -31 30 c-18 17 -38 42 -46 58 -14 27 -14 27 20 27 22 0 45 -9 65 -26z
m3006 -144 c10 -11 14 -20 9 -20 -5 0 -15 9 -22 20 -7 11 -11 20 -9 20 2 0 12
-9 22 -20z m658 -23 c-70 -88 -87 -106 -95 -101 -4 3 1 17 12 31 11 14 20 31
20 37 1 11 57 53 73 55 5 1 0 -9 -10 -22z m-134 -138 c-16 -10 -23 -4 -14 10
3 6 11 8 17 5 6 -4 5 -9 -3 -15z m-2723 -191 c8 -16 13 -28 11 -28 -9 0 -93
31 -114 42 -28 14 -28 18 -2 52 l22 27 34 -33 c19 -18 41 -45 49 -60z m1880
-791 c-3 -13 -15 -45 -27 -71 -24 -55 -39 -48 -39 17 0 31 5 40 33 57 40 25
40 25 33 -3z m484 -219 c0 -17 -11 -35 -31 -52 -33 -28 -65 -35 -56 -12 3 8
11 43 17 77 7 35 14 71 17 79 6 22 53 -58 53 -92z m3487 -3098 c30 0 136 -120
121 -136 -5 -5 -183 23 -253 40 -33 8 -54 15 -47 15 6 1 29 18 50 40 39 40 63
52 97 45 11 -2 26 -4 32 -4z m103 -616 c0 -20 -68 -98 -104 -119 -70 -41 -139
-31 -194 28 l-24 25 94 21 c51 11 120 27 153 35 74 17 75 17 75 10z"/>
</g>
</svg>
