 <svg version="1.0" xmlns="http://www.w3.org/2000/svg"
 width="1280.000000pt" height="640.000000pt" viewBox="0 0 1280.000000 640.000000"
 preserveAspectRatio="xMidYMid meet"><g transform="translate(0.000000,640.000000) scale(0.100000,-0.100000)"
fill="#000000" stroke="none">
<path d="M2043 5010 c-105 -9 -141 -19 -238 -68 -150 -75 -403 -261 -545 -402
-76 -76 -74 -71 -44 -135 l27 -57 116 6 c354 19 399 13 517 -71 150 -105 244
-270 289 -503 52 -267 -41 -584 -277 -940 -109 -166 -173 -249 -363 -470 -22
-26 -74 -87 -115 -135 -41 -49 -109 -126 -151 -172 -107 -118 -109 -121 -70
-178 17 -25 31 -49 31 -53 0 -4 13 -21 28 -39 l27 -31 115 10 c111 9 277 3
525 -22 289 -28 393 -47 542 -101 80 -29 85 -30 165 -19 46 6 126 20 178 30
52 10 158 30 235 44 77 15 176 34 220 43 44 9 95 18 113 21 36 5 54 26 167
195 32 49 62 90 65 92 4 2 34 -37 68 -88 74 -112 211 -266 318 -359 94 -81
228 -151 324 -168 86 -15 130 -7 805 140 253 55 343 94 510 219 72 54 338 319
417 416 324 396 488 674 557 942 41 162 45 189 44 348 0 145 -5 192 -37 340
-43 205 -181 526 -309 718 -82 123 -250 281 -352 331 -113 56 -118 58 -254 81
-70 12 -151 12 -480 4 -403 -9 -483 -16 -574 -51 -135 -51 -416 -251 -565
-401 l-84 -84 69 -13 c37 -6 97 -21 133 -32 60 -19 284 -123 356 -166 51 -30
167 -118 198 -151 26 -27 27 -31 10 -31 -62 -1 -456 -32 -489 -39 -105 -22
-290 -121 -428 -229 -57 -45 -174 -189 -217 -267 -12 -22 -33 -58 -45 -80 -56
-96 -108 -252 -144 -433 -16 -76 -13 -272 4 -387 8 -54 13 -100 11 -102 -2 -2
-148 -1 -325 3 -260 6 -321 10 -317 20 3 8 68 103 144 211 76 109 160 230 187
268 27 39 65 93 84 120 72 102 221 332 221 340 0 2 14 27 31 55 42 68 101 216
130 325 21 80 24 111 24 280 -1 169 -3 199 -24 275 -50 178 -125 303 -255 427
-82 79 -135 111 -256 155 -64 23 -70 23 -510 24 -245 1 -486 -2 -537 -6z
m2973 -1337 c106 -223 160 -390 190 -582 18 -119 18 -335 -1 -471 -8 -58 -15
-108 -15 -112 -1 -23 -23 1 -73 76 -86 130 -182 334 -201 429 -3 12 -12 60
-22 107 -12 60 -17 136 -17 260 0 166 3 193 37 332 6 23 35 78 42 78 3 0 30
-52 60 -117z"/>
<path d="M11202 4978 l-164 -10 -76 -49 c-77 -51 -134 -94 -207 -160 -86 -77
-166 -148 -266 -234 -230 -199 -535 -514 -699 -720 -25 -31 -50 -62 -55 -68
-91 -104 -278 -414 -335 -557 -12 -30 -26 -64 -31 -75 -42 -99 -71 -242 -105
-505 -15 -117 -15 -150 -5 -250 20 -182 64 -369 111 -475 10 -22 27 -62 39
-90 27 -61 100 -179 160 -260 77 -102 269 -285 366 -350 159 -105 272 -140
445 -139 156 2 210 17 730 207 229 84 311 125 500 250 74 49 140 95 147 101 7
6 33 27 59 46 306 229 483 446 567 691 72 210 60 478 -32 709 -85 211 -266
438 -409 514 -114 59 -193 64 -432 26 -36 -6 -110 -17 -165 -25 -224 -32 -336
-59 -434 -102 -53 -23 -208 -113 -259 -150 l-24 -16 7 39 c24 136 100 343 178
483 155 282 416 589 698 821 92 76 180 147 203 163 17 13 15 19 -44 105 l-62
92 -121 -2 c-67 0 -196 -5 -285 -10z m-514 -2120 c112 -82 219 -202 301 -337
65 -107 146 -367 157 -507 7 -83 6 -86 -12 -76 -22 11 -180 181 -233 250 -126
162 -223 389 -261 607 -4 28 -11 62 -15 78 -4 15 -4 27 -1 27 4 0 33 -19 64
-42z"/>
<path d="M7825 4949 c-128 -3 -248 -12 -270 -19 -89 -26 -349 -202 -573 -386
-37 -30 -98 -80 -135 -111 -38 -30 -109 -94 -158 -142 l-90 -86 48 -53 48 -54
99 3 99 3 38 -43 c74 -83 122 -261 147 -551 5 -52 10 -579 11 -1170 1 -591 4
-1076 6 -1078 5 -5 304 70 520 130 183 51 213 65 355 158 41 28 84 54 95 60
11 6 54 32 95 59 63 42 136 89 229 146 9 6 46 29 82 53 l66 42 6 742 c3 409 2
1051 -2 1428 -9 767 -7 753 -79 823 -21 20 -54 42 -73 47 -36 11 -199 11 -564
-1z"/>
</g>
</svg>
